<svg width="64" height="64" viewBox="0 0 64 64" fill="none" xmlns="http://www.w3.org/2000/svg">
<rect width="64" height="64" rx="32" fill="#660000"/>
<path d="M21.8299 23.3019C18.8539 24.0789 16.4848 25.9782 15.1557 28.64C14.1878 30.6113 14.1445 30.899 14.0722 36.194L14 40.9854H16.2536H18.5072V36.8846C18.5072 34.453 18.565 32.4962 18.6661 32.0357C19.0273 30.2947 20.3275 28.6688 21.9454 27.9206C22.7111 27.5609 22.9133 27.5321 25.1958 27.489L27.6084 27.4314V29.676V31.9206H29.9198H32.2312V27.4602V22.9998L27.5795 23.0142C23.4334 23.0142 22.7978 23.0429 21.8299 23.3019Z" fill="white"/>
<path d="M36.7099 25.2302V27.4605H41.1304H45.551L45.5076 29.8777C45.4498 32.2518 45.4498 32.295 44.9876 33.2302C44.3808 34.4389 43.4274 35.3885 42.2283 35.9784L41.2604 36.4532L34.4418 36.4964L27.6087 36.5396V34.295V32.0648H25.3695H23.1304V36.5252V41L32.4915 40.9568L41.8383 40.9137L43.0518 40.4964C45.5799 39.6187 47.7323 37.7194 48.9025 35.3453C49.9137 33.3309 50.0004 32.7122 50.0004 27.4892V23H43.3551H36.7099V25.2302Z" fill="white"/>
</svg>
