<svg width="20" height="20" viewBox="0 0 20 20" fill="none" xmlns="http://www.w3.org/2000/svg">
<path d="M18.633 1.77303C17.3049 2.26131 0.918161 8.55428 0.675974 8.67147C-0.124808 9.05037 -0.218558 9.55037 0.449411 9.89022C0.515818 9.92537 1.62129 10.2769 2.91426 10.6793L5.26191 11.4097L10.59 8.07381C13.5236 6.24178 15.9807 4.71834 16.051 4.69491C16.2346 4.63241 16.3908 4.63631 16.4611 4.71053C16.5119 4.76131 16.5158 4.78475 16.4729 4.85897C16.4494 4.90975 14.5002 6.67928 12.1486 8.78865C9.79707 10.9019 7.86347 12.6441 7.85566 12.6637C7.84785 12.6832 7.76972 13.7379 7.67988 15.0074L7.51582 17.3121L7.69551 17.2887C7.79316 17.2769 7.94551 17.2262 8.03535 17.1754C8.1291 17.1285 8.73847 16.5738 9.39863 15.9449C10.0549 15.316 10.6174 14.7887 10.6447 14.7808C10.6721 14.7691 11.7189 15.5113 12.9729 16.4293C14.2229 17.3472 15.3439 18.1402 15.465 18.1949C15.7814 18.3433 16.133 18.3551 16.3635 18.234C16.5705 18.1246 16.7697 17.8512 16.8557 17.566C16.8869 17.4566 17.6057 14.148 18.4455 10.2144C19.8479 3.66756 19.9768 3.03475 19.9768 2.69491C19.9768 2.37459 19.965 2.29647 19.8791 2.1285C19.8205 2.00741 19.715 1.88631 19.6135 1.816C19.383 1.65584 19.0002 1.63631 18.633 1.77303Z" fill="#1F1F1F"/>
</svg>
