<svg width="20" height="20" viewBox="0 0 20 20" fill="none" xmlns="http://www.w3.org/2000/svg">
<path d="M7.33594 4.39057C7.23438 4.41792 7.12109 4.46479 7.08203 4.49214C6.91797 4.61714 6.74609 4.79292 6.69531 4.88667C6.62891 5.01557 6.66406 5.05073 6.91406 5.11714C7.30078 5.2226 7.55469 5.42573 7.69531 5.75776C7.83203 6.08198 7.90234 6.9101 7.875 7.89057C7.84375 9.05464 7.74219 9.5351 7.49219 9.74604C7.15625 10.0312 6.70312 9.68354 5.94922 8.55464C5.39062 7.71479 4.89453 6.79292 4.37109 5.60542C4.13281 5.06245 3.94922 4.83979 3.67969 4.76557C3.55859 4.73432 3.03906 4.72651 1.92188 4.73432C0.164062 4.74604 0.140625 4.74995 0.0390625 4.99604C-0.0351562 5.17964 0.015625 5.3476 0.378906 6.13276C1.44922 8.44526 2.44922 10.2304 3.49219 11.6992C5.31641 14.2734 7.06641 15.4101 9.53125 15.6249C10.3906 15.6992 11.0859 15.6601 11.3555 15.5195C11.5742 15.4062 11.6406 15.2382 11.7031 14.6406C11.7656 14.0078 11.8125 13.8007 11.9609 13.4843C12.1602 13.0585 12.4648 12.9218 12.8359 13.082C12.9844 13.1484 13.1562 13.3007 13.5938 13.7617C14.8711 15.0976 15.0352 15.2499 15.3945 15.4218C15.6055 15.5234 15.8242 15.5937 16.0039 15.621C16.3594 15.6757 19.3438 15.6796 19.5273 15.6249C19.957 15.5039 20.0977 14.996 19.8477 14.4843C19.5938 13.9726 19.1328 13.4257 18.0234 12.3242C17.4414 11.7421 16.9141 11.1914 16.8516 11.1015C16.7031 10.871 16.6992 10.6093 16.8398 10.3124C16.8945 10.1953 17.3867 9.49995 17.9297 8.76948C19.043 7.27339 19.4062 6.73823 19.6602 6.23042C20.0273 5.49214 20.082 5.12104 19.8516 4.91792C19.6562 4.74214 19.4688 4.72651 17.5469 4.72651C15.8711 4.72651 15.75 4.73432 15.5977 4.80464C15.3945 4.89448 15.3398 4.98042 15.0352 5.70307C14.4023 7.18354 13.7109 8.37495 12.9727 9.23823C12.6289 9.64448 12.4219 9.80464 12.2422 9.80464C12.0312 9.80464 11.8281 9.5937 11.707 9.24214C11.6797 9.16401 11.6562 8.35932 11.6445 7.0312C11.6211 5.00776 11.6172 4.93745 11.5391 4.76167C11.4492 4.57026 11.3164 4.45307 11.0977 4.38276C10.9023 4.31635 7.58594 4.32417 7.33594 4.39057Z" fill="#1F1F1F"/>
</svg>
