<svg width="20" height="20" viewBox="0 0 20 20" fill="none" xmlns="http://www.w3.org/2000/svg">
<g clip-path="url(#clip0_1_292)">
<path d="M9.19619 0.0294342C8.85665 0.0562401 8.07481 0.181335 7.67718 0.275156C4.57215 1.00785 1.94515 3.26403 0.738882 6.23057C-0.351231 8.91117 -0.239539 11.8375 1.05609 14.4645L1.2616 14.8845L0.631658 17.4355C0.283179 18.8428 0.00618321 19.9955 0.0106509 19.9999C0.0151186 20.0044 1.17225 19.7274 2.58403 19.3879L5.14848 18.7624L5.59525 18.9858C6.48878 19.4236 7.50294 19.7408 8.54838 19.9106C9.21853 20.0178 10.7554 20.0178 11.4524 19.9106C13.6817 19.5621 15.6699 18.539 17.2023 16.9396C18.4175 15.6663 19.2395 14.2098 19.6684 12.5523C20.5888 9.00053 19.5746 5.37277 16.9431 2.80833C14.897 0.820211 12.0868 -0.189482 9.19619 0.0294342ZM6.76578 5.37724C7.08745 5.44426 7.36891 5.59169 7.48954 5.76146C7.58336 5.88656 8.1731 7.15984 8.28479 7.47705C8.41882 7.84787 8.325 8.14273 7.94078 8.59397C7.50294 9.10775 7.49848 9.16583 7.87376 9.76897C8.55285 10.868 9.56254 11.7705 10.5767 12.186C11.2066 12.4496 11.3317 12.4138 11.6624 11.8956C11.9617 11.422 12.2163 11.2746 12.6855 11.3103C12.8999 11.3237 13.0741 11.3907 13.6728 11.6856C14.4591 12.0698 14.6468 12.2039 14.7897 12.4764C15.0086 12.9097 14.7853 13.6201 14.2581 14.1518C13.7666 14.6477 13.2752 14.7951 12.3772 14.7057C10.6169 14.5315 8.97281 13.638 7.29743 11.9537C6.05989 10.7072 5.31825 9.67961 5.01445 8.79055C4.67044 7.77192 4.83574 6.655 5.44335 5.88656C5.85884 5.35937 6.15817 5.24768 6.76578 5.37724Z" fill="#1F1F1F"/>
</g>
<defs>
<clipPath id="clip0_1_292">
<rect width="20" height="20" fill="white"/>
</clipPath>
</defs>
</svg>
