<svg width="64" height="64" fill="none" xmlns="http://www.w3.org/2000/svg"><rect width="64" height="64" rx="32" fill="#600"/><path d="M21.83 23.302c-2.976.777-5.345 2.676-6.674 5.338-.968 1.971-1.011 2.259-1.084 7.554L14 40.985h4.507v-4.1c0-2.432.058-4.389.16-4.85.36-1.74 1.66-3.366 3.278-4.114.766-.36.968-.389 3.25-.432l2.413-.058v4.49h4.623V23l-4.652.014c-4.146 0-4.781.029-5.75.288z" fill="#fff"/><path d="M36.71 25.23v2.23h8.84l-.043 2.418c-.058 2.374-.058 2.417-.52 3.352a6.064 6.064 0 01-2.76 2.748l-.968.475-6.818.043-6.833.044v-4.475H23.13V41l9.362-.043 9.346-.043 1.214-.418c2.528-.877 4.68-2.777 5.85-5.15C49.915 33.33 50 32.711 50 27.488V23H36.71v2.23z" fill="#fff"/></svg>