<svg width="164" height="24" fill="none" xmlns="http://www.w3.org/2000/svg"><path d="M0 .43v23.14h3.486v-7.702H8.75c5.161 0 7.759-3.835 7.759-7.703C16.508 4.298 13.91.43 8.749.43H0zm3.486 12.132v-8.76H8.75c2.905 0 4.34 2.181 4.34 4.396 0 2.182-1.434 4.364-4.34 4.364H3.486zm21.424.859l8.714 10.15h4.478l-7.553-8.695c4.1-.694 6.186-3.802 6.186-7.074 0-3.67-2.598-7.372-7.793-7.372h-8.715v23.14h3.418V3.802h5.297c2.905 0 4.34 2.016 4.34 4 0 2.016-1.435 4.033-4.34 4.033H24.91v1.586zM60.463 12a8.345 8.345 0 01-2.564 6.05c-1.606 1.586-3.862 2.545-6.254 2.545a8.773 8.773 0 01-6.186-2.545A8.298 8.298 0 0142.86 12c0-2.38.992-4.529 2.598-6.05a8.773 8.773 0 016.186-2.545c2.392 0 4.648.959 6.254 2.545A8.345 8.345 0 0160.463 12zM39.34 12c0 3.306 1.401 6.281 3.589 8.463C45.15 22.678 48.26 24 51.645 24c3.418 0 6.494-1.322 8.75-3.537 2.187-2.182 3.588-5.157 3.588-8.463 0-3.306-1.401-6.281-3.589-8.463A12.533 12.533 0 0051.645 0a12.45 12.45 0 00-8.715 3.537C40.742 5.72 39.34 8.694 39.34 12zm31.566 1.686h9.57v-3.107h-9.57v-6.91h10.8V.43H67.454v23.14h3.452v-9.884zm12.81-9.591v16.269h-4.444v3.206H91.61v-3.206h-4.443V3.636h4.444V.463h-7.892v3.632h-.003zm21.034-.492V23.57h-3.452V3.603h-7.246V.43h17.91v3.173h-7.212zM114.59.51v22.98h.753V.51h-.753zm1.37 11.785l13.085 11.194h1.198l-13.564-11.522L129.901.51h-1.199L115.96 11.704v.591zM143.719.51h-10.824v.624h5.035v21.699h-5.035v.656h10.824v-.656h-5.07V1.134h5.07V.51zm12.06 22.98V1.232H164V.51h-17.161v.723h8.221v22.256h.719z" fill="#fff"/></svg>