<svg width="20" height="20" fill="none" xmlns="http://www.w3.org/2000/svg"><path d="M18.633 1.773C17.305 2.261.918 8.554.676 8.671c-.8.38-.895.88-.227 1.22.067.034 1.172.386 2.465.788l2.348.73 5.328-3.335c2.934-1.832 5.39-3.356 5.461-3.38.184-.062.34-.058.41.017.05.05.055.074.012.148-.024.05-1.973 1.82-4.324 3.93-2.352 2.113-4.286 3.855-4.293 3.875-.008.02-.086 1.074-.176 2.343l-.164 2.305.18-.023a1.1 1.1 0 00.34-.114c.093-.047.702-.601 1.363-1.23.656-.629 1.218-1.156 1.246-1.164.027-.012 1.074.73 2.328 1.648 1.25.918 2.37 1.711 2.492 1.766.316.148.668.16.898.039.207-.11.407-.383.493-.668.03-.11.75-3.418 1.59-7.352 1.402-6.546 1.53-7.18 1.53-7.52 0-.32-.011-.398-.097-.566a.867.867 0 00-.266-.312c-.23-.16-.613-.18-.98-.043z" fill="#1F1F1F"/></svg>