<svg width="20" height="20" fill="none" xmlns="http://www.w3.org/2000/svg"><path d="M7.336 4.39a1.051 1.051 0 00-.254.102c-.164.125-.336.3-.387.395-.066.129-.03.164.22.23.386.106.64.309.78.64.137.325.207 1.153.18 2.134-.031 1.164-.133 1.644-.383 1.855-.336.285-.789-.062-1.543-1.191-.558-.84-1.054-1.762-1.578-2.95-.238-.543-.422-.765-.691-.84-.121-.03-.64-.038-1.758-.03-1.758.01-1.782.015-1.883.26-.074.184-.023.352.34 1.137 1.07 2.312 2.07 4.097 3.113 5.566 1.824 2.574 3.574 3.711 6.04 3.926.859.074 1.554.035 1.823-.105.22-.114.286-.282.348-.88.063-.632.11-.84.258-1.156.2-.425.504-.562.875-.402.148.066.32.219.758.68 1.277 1.336 1.441 1.488 1.8 1.66.211.101.43.172.61.199.355.055 3.34.059 3.523.004.43-.121.57-.629.32-1.14-.253-.512-.714-1.06-1.824-2.16-.582-.583-1.109-1.134-1.171-1.223-.149-.231-.153-.493-.012-.79.055-.117.547-.812 1.09-1.543 1.113-1.496 1.476-2.03 1.73-2.539.367-.738.422-1.109.192-1.312-.196-.176-.383-.191-2.305-.191-1.676 0-1.797.007-1.95.078-.202.09-.257.175-.562.898-.633 1.48-1.324 2.672-2.062 3.535-.344.406-.551.567-.73.567-.212 0-.415-.211-.536-.563-.027-.078-.05-.883-.063-2.21-.023-2.024-.027-2.095-.105-2.27a.674.674 0 00-.441-.38c-.196-.066-3.512-.058-3.762.009z" fill="#1F1F1F"/></svg>