<svg width="20" height="20" fill="none" xmlns="http://www.w3.org/2000/svg"><g clip-path="url(#clip0_1_292)"><path d="M9.196.03c-.34.026-1.121.151-1.519.245C4.572 1.008 1.945 3.264.74 6.231c-1.09 2.68-.979 5.607.317 8.233l.206.42-.63 2.552C.283 18.843.006 19.995.01 20c.004.004 1.161-.273 2.573-.612l2.564-.626.447.224c.894.438 1.908.755 2.953.925.67.107 2.207.107 2.904 0 2.23-.349 4.218-1.372 5.75-2.971 1.215-1.274 2.037-2.73 2.466-4.388.92-3.551-.093-7.18-2.725-9.744C14.897.82 12.087-.189 9.196.03zm-2.43 5.347c.321.067.603.215.724.384.093.126.683 1.399.795 1.716.134.37.04.666-.344 1.117-.438.514-.443.572-.067 1.175.679 1.099 1.689 2.002 2.703 2.417.63.264.755.228 1.085-.29.3-.474.554-.621 1.023-.586.215.014.39.08.988.376.786.384.974.518 1.117.79.219.434-.005 1.144-.532 1.676-.491.496-.983.643-1.88.554-1.761-.175-3.405-1.068-5.08-2.752C6.06 10.707 5.317 9.68 5.013 8.79c-.344-1.02-.178-2.136.43-2.904.415-.528.714-.64 1.322-.51z" fill="#1F1F1F"/></g><defs><clipPath id="clip0_1_292"><path fill="#fff" d="M0 0h20v20H0z"/></clipPath></defs></svg>