<?xml version="1.0" encoding="utf-8"?><svg viewBox="0 0 164 64" xmlns="http://www.w3.org/2000/svg" xmlns:xlink="http://www.w3.org/1999/xlink"><style>:root>svg{display:none}:root>svg:target{display:block}</style><svg fill="none" viewBox="0 0 64 64" id="logo-simbol" xmlns="http://www.w3.org/2000/svg"><rect width="64" height="64" rx="32" fill="#600"/><path d="M21.83 23.302c-2.976.777-5.345 2.676-6.674 5.338-.968 1.971-1.011 2.259-1.084 7.554L14 40.985h4.507v-4.1c0-2.432.058-4.389.16-4.85.36-1.74 1.66-3.366 3.278-4.114.766-.36.968-.389 3.25-.432l2.413-.058v4.49H32.231V23l-4.652.014c-4.146 0-4.781.029-5.75.288z" fill="#fff"/><path d="M36.71 25.23v2.23H45.55l-.043 2.418c-.058 2.374-.058 2.417-.52 3.352a6.064 6.064 0 01-2.76 2.748l-.968.475-6.818.043-6.833.044v-4.475H23.13V41l9.362-.043 9.346-.043 1.214-.418c2.528-.877 4.68-2.777 5.85-5.15C49.915 33.33 50 32.711 50 27.488V23H36.71v2.23z" fill="#fff"/></svg><svg fill="none" viewBox="0 0 60 61" id="menu-close-icon" xmlns="http://www.w3.org/2000/svg"><path d="M21.5 38.985l16.97-16.97m.03 16.97l-16.97-16.97" stroke="#fff" stroke-width="2" stroke-linecap="square"/><path stroke="#474747" d="M.5 1h59v59H.5z"/></svg><svg fill="none" viewBox="0 0 60 61" id="menu-icon" xmlns="http://www.w3.org/2000/svg"><path d="M18 20.5h24m-24 10h24m-24 10h24" stroke="#fff" stroke-width="2" stroke-linecap="square"/><path stroke="#474747" d="M.5 1h59v59H.5z"/></svg><svg fill="none" viewBox="0 0 24 24" id="modal-close-icon" xmlns="http://www.w3.org/2000/svg"><path d="M22 2L2 22M2 2l20 20"/></svg><svg fill="none" viewBox="0 0 164 24" id="profit-kit" xmlns="http://www.w3.org/2000/svg"><path d="M0 .43v23.14h3.486v-7.702H8.75c5.161 0 7.759-3.835 7.759-7.703C16.508 4.298 13.91.43 8.749.43H0zm3.486 12.132v-8.76H8.75c2.905 0 4.34 2.181 4.34 4.396 0 2.182-1.434 4.364-4.34 4.364H3.486zM24.91 13.421l8.714 10.15h4.478l-7.553-8.695c4.1-.694 6.186-3.802 6.186-7.074 0-3.67-2.598-7.372-7.793-7.372h-8.715v23.14h3.418V3.802h5.297c2.905 0 4.34 2.016 4.34 4 0 2.016-1.435 4.033-4.34 4.033H24.91v1.586zM60.463 12a8.345 8.345 0 01-2.564 6.05c-1.606 1.586-3.862 2.545-6.254 2.545a8.773 8.773 0 01-6.186-2.545A8.298 8.298 0 0142.86 12c0-2.38.992-4.529 2.598-6.05a8.773 8.773 0 016.186-2.545c2.392 0 4.648.959 6.254 2.545A8.345 8.345 0 0160.463 12zM39.34 12c0 3.306 1.401 6.281 3.589 8.463C45.15 22.678 48.26 24 51.645 24c3.418 0 6.494-1.322 8.75-3.537 2.187-2.182 3.588-5.157 3.588-8.463 0-3.306-1.401-6.281-3.589-8.463A12.533 12.533 0 0051.645 0a12.45 12.45 0 00-8.715 3.537C40.742 5.72 39.34 8.694 39.34 12zM70.906 13.686h9.57v-3.107h-9.57v-6.91h10.8V.43H67.454V23.57h3.452v-9.884zM83.716 4.095v16.269h-4.444v3.206H91.61v-3.206h-4.443V3.636h4.444V.463h-7.892v3.632h-.003zM104.75 3.603V23.57h-3.452V3.603h-7.246V.43h17.91v3.173h-7.212zM114.59.51v22.98h.753V.51h-.753zm1.37 11.785l13.085 11.194h1.198l-13.564-11.522L129.901.51h-1.199L115.96 11.704v.591zM143.719.51h-10.824v.624h5.035v21.699h-5.035v.656h10.824v-.656h-5.07V1.134h5.07V.51zM155.779 23.49V1.232H164V.51h-17.161v.723h8.221v22.256h.719z" fill="#fff"/></svg><svg viewBox="0 0 18 16" id="slider-arrow" xmlns="http://www.w3.org/2000/svg"><path d="M7.84 1.444l.615.615-2.514 2.513-2.513 2.514H18v1.828H3.428l2.513 2.514 2.514 2.514-.615.615c-.338.337-.626.611-.64.608a506.664 506.664 0 01-3.614-3.596L0 7.982l3.575-3.576C5.545 2.438 7.172.828 7.19.828c.022 0 .313.278.65.616z"/></svg><svg viewBox="0 0 32 33" id="stage-arrow" xmlns="http://www.w3.org/2000/svg"><path d="M22.78 6.797v1.547H10.14l9.162 9.162 9.157 9.157-1.15 1.149-1.149 1.149-9.157-9.157-9.161-9.162v12.64H6.295c-.848 0-1.555-.018-1.569-.04-.013-.03-.022-4.105-.022-9.064V5.162h8.99c4.95 0 9.02.022 9.041.044.027.027.045.743.045 1.591z"/></svg><svg fill="none" viewBox="0 0 20 20" id="tg-icon" xmlns="http://www.w3.org/2000/svg"><path d="M18.633 1.773C17.305 2.261.918 8.554.676 8.671c-.8.38-.895.88-.227 1.22.067.034 1.172.386 2.465.788l2.348.73 5.328-3.335c2.934-1.832 5.39-3.356 5.461-3.38.184-.062.34-.058.41.017.05.05.055.074.012.148-.024.05-1.973 1.82-4.324 3.93-2.352 2.113-4.286 3.855-4.293 3.875-.008.02-.086 1.074-.176 2.343l-.164 2.305.18-.023c.097-.012.25-.063.34-.114.093-.047.702-.601 1.363-1.23.656-.629 1.218-1.156 1.246-1.164.027-.012 1.074.73 2.328 1.648 1.25.918 2.37 1.711 2.492 1.766.316.148.668.16.898.039.207-.11.407-.383.493-.668.03-.11.75-3.418 1.59-7.352 1.402-6.546 1.53-7.18 1.53-7.52 0-.32-.011-.398-.097-.566a.867.867 0 00-.266-.312c-.23-.16-.613-.18-.98-.043z" fill="#1F1F1F"/></svg><svg fill="none" viewBox="0 0 20 20" id="vk-icon" xmlns="http://www.w3.org/2000/svg"><path d="M7.336 4.39a1.051 1.051 0 00-.254.102c-.164.125-.336.3-.387.395-.066.129-.03.164.22.23.386.106.64.309.78.64.137.325.207 1.153.18 2.134-.031 1.164-.133 1.644-.383 1.855-.336.285-.789-.062-1.543-1.191-.558-.84-1.054-1.762-1.578-2.95-.238-.543-.422-.765-.691-.84-.121-.03-.64-.038-1.758-.03C.164 4.745.14 4.75.039 4.995c-.074.184-.023.352.34 1.137 1.07 2.312 2.07 4.097 3.113 5.566 1.824 2.574 3.574 3.711 6.04 3.926.859.074 1.554.035 1.823-.105.22-.114.286-.282.348-.88.063-.632.11-.84.258-1.156.2-.425.504-.562.875-.402.148.066.32.219.758.68 1.277 1.336 1.441 1.488 1.8 1.66.211.101.43.172.61.199.355.055 3.34.059 3.523.004.43-.121.57-.629.32-1.14-.253-.512-.714-1.06-1.824-2.16-.582-.583-1.109-1.134-1.171-1.223-.149-.231-.153-.493-.012-.79.055-.117.547-.812 1.09-1.543 1.113-1.496 1.476-2.03 1.73-2.539.367-.738.422-1.109.192-1.312-.196-.176-.383-.191-2.305-.191-1.676 0-1.797.007-1.95.078-.202.09-.257.175-.562.898-.633 1.48-1.324 2.672-2.062 3.535-.344.406-.551.567-.73.567-.212 0-.415-.211-.536-.563-.027-.078-.05-.883-.063-2.21-.023-2.024-.027-2.095-.105-2.27a.674.674 0 00-.441-.38c-.196-.066-3.512-.058-3.762.009z" fill="#1F1F1F"/></svg><svg fill="none" viewBox="0 0 20 20" id="whatsapp-icon" xmlns="http://www.w3.org/2000/svg"><g clip-path="url(#jclip0_1_292)"><path d="M9.196.03c-.34.026-1.121.151-1.519.245C4.572 1.008 1.945 3.264.74 6.231c-1.09 2.68-.979 5.607.317 8.233l.206.42-.63 2.552C.283 18.843.006 19.995.01 20c.004.004 1.161-.273 2.573-.612l2.564-.626.447.224c.894.438 1.908.755 2.953.925.67.107 2.207.107 2.904 0 2.23-.349 4.218-1.372 5.75-2.971 1.215-1.274 2.037-2.73 2.466-4.388.92-3.551-.093-7.18-2.725-9.744C14.897.82 12.087-.189 9.196.03zm-2.43 5.347c.321.067.603.215.724.384.093.126.683 1.399.795 1.716.134.37.04.666-.344 1.117-.438.514-.443.572-.067 1.175.679 1.099 1.689 2.002 2.703 2.417.63.264.755.228 1.085-.29.3-.474.554-.621 1.023-.586.215.014.39.08.988.376.786.384.974.518 1.117.79.219.434-.005 1.144-.532 1.676-.491.496-.983.643-1.88.554-1.761-.175-3.405-1.068-5.08-2.752C6.06 10.707 5.317 9.68 5.013 8.79c-.344-1.02-.178-2.136.43-2.904.415-.528.714-.64 1.322-.51z" fill="#1F1F1F"/></g><defs><clipPath id="jclip0_1_292"><path fill="#fff" d="M0 0h20v20H0z"/></clipPath></defs></svg></svg>