<svg viewBox="0 0 60 61" xmlns="http://www.w3.org/2000/svg" xmlns:xlink="http://www.w3.org/1999/xlink"><style>:root&gt;svg{display:none}:root&gt;svg:target{display:block}</style><svg fill="none" viewBox="0 0 60 61" id="menu-close-icon" xmlns="http://www.w3.org/2000/svg"><path d="M21.5 38.985l16.97-16.97m.03 16.97l-16.97-16.97" stroke="#fff" stroke-width="2" stroke-linecap="square"/><path stroke="#474747" d="M.5 1h59v59H.5z"/></svg><svg fill="none" viewBox="0 0 60 61" id="menu-icon" xmlns="http://www.w3.org/2000/svg"><path d="M18 20.5h24m-24 10h24m-24 10h24" stroke="#fff" stroke-width="2" stroke-linecap="square"/><path stroke="#474747" d="M.5 1h59v59H.5z"/></svg><svg fill="none" viewBox="0 0 24 24" id="modal-close-icon" xmlns="http://www.w3.org/2000/svg"><path d="M22 2L2 22M2 2l20 20"/></svg><svg viewBox="0 0 18 16" id="slider-arrow" xmlns="http://www.w3.org/2000/svg"><path d="M7.84 1.444l.615.615-2.514 2.513-2.513 2.514H18v1.828H3.428l2.513 2.514 2.514 2.514-.615.615c-.338.337-.626.611-.64.608a506.664 506.664 0 01-3.614-3.596L0 7.982l3.575-3.576C5.545 2.438 7.172.828 7.19.828c.022 0 .313.278.65.616z"/></svg><svg viewBox="0 0 32 33" id="stage-arrow" xmlns="http://www.w3.org/2000/svg"><path d="M22.78 6.797v1.547H10.14l9.162 9.162 9.157 9.157-1.15 1.149-1.149 1.149-9.157-9.157-9.161-9.162v12.64H6.295c-.848 0-1.555-.018-1.569-.04-.013-.03-.022-4.105-.022-9.064V5.162h8.99c4.95 0 9.02.022 9.041.044.027.027.045.743.045 1.591z"/></svg></svg>